<svg width="32" height="27" viewBox="0 0 32 27" fill="none" xmlns="http://www.w3.org/2000/svg">
<path d="M12.7098 17.2502V22.2501C12.7098 23.2446 13.1915 24.1984 14.049 24.9017C14.9066 25.6049 16.0696 26 17.2823 26L23.3791 14.7502V1.00045H6.18626C5.45111 0.993636 4.73771 1.20494 4.17753 1.59543C3.61735 1.98592 3.24813 2.52929 3.13789 3.12541L1.03452 14.3752C0.968205 14.7335 0.997673 15.0993 1.12088 15.4474C1.24409 15.7954 1.45809 16.1173 1.74805 16.3908C2.03802 16.6643 2.39702 16.8827 2.80018 17.0311C3.20334 17.1795 3.64102 17.2543 4.08289 17.2502H12.7098ZM23.3791 1.00045H27.4486C28.3113 0.987941 29.1495 1.23562 29.8041 1.69646C30.4588 2.15731 30.8844 2.79924 31 3.50041V12.2502C30.8844 12.9514 30.4588 13.5933 29.8041 14.0542C29.1495 14.515 28.3113 14.7627 27.4486 14.7502H23.3791" fill="#0A2463"/>
<path d="M23.3791 1.00045H27.4486C28.3113 0.987941 29.1495 1.23562 29.8041 1.69646C30.4588 2.15731 30.8844 2.79924 31 3.50041V12.2502C30.8844 12.9514 30.4588 13.5933 29.8041 14.0542C29.1495 14.515 28.3113 14.7627 27.4486 14.7502H23.3791M12.7098 17.2502V22.2501C12.7098 23.2446 13.1915 24.1984 14.049 24.9017C14.9066 25.6049 16.0696 26 17.2823 26L23.3791 14.7502V1.00045H6.18626C5.45111 0.993636 4.73771 1.20494 4.17753 1.59543C3.61735 1.98592 3.24813 2.52929 3.13789 3.12541L1.03452 14.3752C0.968205 14.7335 0.997673 15.0993 1.12088 15.4474C1.24409 15.7954 1.45809 16.1173 1.74805 16.3908C2.03802 16.6643 2.39702 16.8827 2.80018 17.0311C3.20334 17.1795 3.64102 17.2543 4.08289 17.2502H12.7098Z" stroke="black" stroke-width="1.35139" stroke-linecap="round" stroke-linejoin="round"/>
</svg>
