<svg width="32" height="27" viewBox="0 0 32 27" fill="none" xmlns="http://www.w3.org/2000/svg">
<path d="M19.2902 9.74994V4.74998C19.2902 3.75542 18.8085 2.8016 17.951 2.09834C17.0934 1.39509 15.9304 1 14.7177 1L8.62093 12.2499V25.9998H25.8137C26.5489 26.0067 27.2623 25.7953 27.8225 25.4049C28.3826 25.0144 28.7519 24.471 28.8621 23.8749L30.9655 12.6249C31.0318 12.2666 31.0023 11.9008 30.8791 11.5527C30.7559 11.2047 30.5419 10.8828 30.2519 10.6093C29.962 10.3359 29.603 10.1174 29.1998 9.96896C28.7967 9.82057 28.359 9.74584 27.9171 9.74994H19.2902ZM8.62093 25.9998H4.04837C3.23989 25.9998 2.46453 25.7365 1.89285 25.2676C1.32117 24.7988 1 24.1629 1 23.4999V14.7499C1 14.0869 1.32117 13.451 1.89285 12.9822C2.46453 12.5133 3.23989 12.2499 4.04837 12.2499H8.62093" fill="#0A2463"/>
<path d="M8.62093 25.9998H4.04837C3.23989 25.9998 2.46453 25.7364 1.89285 25.2676C1.32117 24.7988 1 24.1629 1 23.4999V14.7499C1 14.0869 1.32117 13.451 1.89285 12.9822C2.46453 12.5133 3.23989 12.2499 4.04837 12.2499H8.62093M19.2902 9.74994V4.74998C19.2902 3.75542 18.8085 2.8016 17.951 2.09834C17.0934 1.39509 15.9304 1 14.7177 1L8.62093 12.2499V25.9998H25.8137C26.5489 26.0067 27.2623 25.7953 27.8225 25.4049C28.3826 25.0144 28.7519 24.471 28.8621 23.8749L30.9655 12.6249C31.0318 12.2666 31.0023 11.9008 30.8791 11.5527C30.7559 11.2047 30.5419 10.8828 30.2519 10.6093C29.962 10.3359 29.603 10.1174 29.1998 9.96896C28.7967 9.82057 28.359 9.74584 27.9171 9.74994H19.2902Z" stroke="black" stroke-width="1.35139" stroke-linecap="round" stroke-linejoin="round"/>
</svg>
