<svg width="70" height="69" viewBox="0 0 70 69" fill="none" xmlns="http://www.w3.org/2000/svg">
<ellipse cx="35" cy="33" rx="35" ry="33" fill="white"/>
<line x1="51.3324" y1="37.9124" x2="37.7983" y2="22.8209" stroke="#3E92CC" stroke-width="2.73602"/>
<line x1="33.0451" y1="23.3453" x2="17.8657" y2="36.9582" stroke="#3E92CC" stroke-width="2.73602"/>
<path d="M12.0672 43.6233C10.5455 41.9264 10.688 39.2985 12.4092 37.755C14.1304 36.2114 16.7583 36.3548 18.28 38.0516C19.8017 39.7485 19.6592 42.3764 17.938 43.92C16.2168 45.4635 13.589 45.3201 12.0672 43.6233Z" stroke="#2C5530" stroke-width="2.73602"/>
<path d="M51.2148 43.5104C49.6931 41.8135 49.8356 39.1856 51.5568 37.642C53.278 36.0985 55.9058 36.2419 57.4276 37.9387C58.9493 39.6356 58.8068 42.2635 57.0856 43.8071C55.3644 45.3506 52.7366 45.2072 51.2148 43.5104Z" stroke="#D8315B" stroke-width="2.73602"/>
<path d="M32.3845 22.6445C30.8628 20.9477 31.0053 18.3198 32.7265 16.7762C34.4477 15.2326 37.0755 15.376 38.5973 17.0729C40.119 18.7697 39.9765 21.3976 38.2553 22.9412C36.5341 24.4848 33.9062 24.3414 32.3845 22.6445Z" stroke="#0A2463" stroke-width="2.73602"/>
</svg>
