<svg width="32" height="27" viewBox="0 0 32 27" fill="none" xmlns="http://www.w3.org/2000/svg">
<path d="M31 12.8056C31.0057 14.6387 30.4917 16.4471 29.5 18.0833C28.324 20.0441 26.5162 21.6933 24.279 22.8462C22.0419 23.9992 19.4637 24.6103 16.8333 24.6111C14.6335 24.6159 12.4635 24.1876 10.5 23.3611L1 26L4.16666 18.0833C3.17488 16.4471 2.66093 14.6387 2.66666 12.8056C2.66768 10.6136 3.40102 8.4651 4.78453 6.60079C6.16804 4.73649 8.14708 3.22999 10.5 2.25004C12.4635 1.42355 14.6335 0.99526 16.8333 1.00004H17.6666C21.1405 1.15975 24.4217 2.38165 26.8819 4.43178C29.342 6.48191 30.8083 9.21621 31 12.1111V12.8056Z" fill="#0A2463" stroke="#444444" stroke-width="1.35139" stroke-linecap="round" stroke-linejoin="round"/>
</svg>
